
<svg width="216px" height="216px" viewBox="0 0 216 216" version="1.1" xmlns="http://www.w3.org/2000/svg" xmlns:xlink="http://www.w3.org/1999/xlink">
    <defs>
        <linearGradient x1="5.71800164%" y1="28.6297862%" x2="91.7011934%" y2="76.3470468%" id="linearGradient-kamcptc0tq-1">
            <stop stop-color="#63B9AF" offset="0%"></stop>
            <stop stop-color="#5494DF" offset="60.7586627%"></stop>
            <stop stop-color="#866AE8" offset="100%"></stop>
        </linearGradient>
    </defs>
    <g id="页面-1" stroke="none" stroke-width="1" fill="none" fill-rule="evenodd">
        <circle id="椭圆形" fill="url(#linearGradient-kamcptc0tq-1)" style="mix-blend-mode: lighten;" cx="108" cy="108" r="108"></circle>
        <path d="M135.595574,53.0226422 C150.31648,53.59475 162.521686,56.964899 172.211192,63.1330894 C183.028155,70.6846489 189.295839,77.3724667 191.121992,87.0896082 C192.553946,94.7091807 192.752475,105.097802 187.665701,115.642217 C186.048203,120.382089 178.007908,131.534156 175.295859,134.641809 C173.60875,136.575014 170.433546,139.994414 165.770248,144.900007 C159.93799,150.517831 153.659845,155.543588 146.935813,159.977278 C140.133036,164.46289 137.124554,166.205321 133.300641,168.130791 L132.672671,168.445096 C130.126377,169.712432 127.132155,171.123331 122.431937,173.476406 C114.419209,177.209373 106.114583,180.383904 97.5180593,183 C107.881919,177.9635 117.755569,172.281824 127.13901,165.954972 C136.642472,160.00025 145.637943,153.258622 154.125422,145.730088 C161.411992,139.400334 167.440582,132.760021 172.211192,125.809148 C178.205839,117.074829 183.028155,106.793709 183.028155,95.8090887 C183.028155,90.1227414 180.821066,84.2557494 176.406887,78.2081127 C173.134247,74.5464671 168.528108,71.1072988 162.588469,67.8906077 C158.877332,66.2928413 154.96535,64.9752806 150.852521,63.9379256 C144.920971,62.0285024 131.081501,60.4561653 125.605849,60.1728312 C121.890045,59.9805594 118.162923,59.9805594 114.424483,60.1728312 L94.1947836,62.0285024 C88.3112554,62.8971924 82.473491,63.9573168 76.6814903,65.2088754 C69.1204328,66.842699 61.605139,68.6679568 54.135609,70.6846489 C67.5698646,64.4694558 81.3752838,59.8495526 95.5518666,56.8249392 C108.423276,54.0787882 121.771178,52.8113558 135.595574,53.0226422 Z M44.7042135,83.6372094 L44.7042135,92.9319044 L49.9278713,92.9319044 L49.9278713,97.1175114 L45.176926,97.1175114 L45.176926,100.673614 L51.2657761,106.938582 L52.2954974,106.261735 L60.435439,105.446248 L59.9726455,99.3422433 L52.2954974,99.3422433 L52.2954974,95.6835957 L59.5225381,94.9143859 L58.7344255,83.6372094 L63.1533302,83.6372094 L64.388258,93.9368953 C66.9435476,93.8133495 69.4864576,93.601311 72.016988,93.3007798 C74.2705847,93.0331379 76.5118018,92.6770034 78.7406394,92.2323762 L79.2282623,95.9683588 C78.3336323,96.3285959 77.414755,96.5941708 76.4716303,96.7650833 C72.5631518,97.4733757 68.630426,98.0870058 64.6734528,98.6059737 C64.6821021,100.613039 64.7706839,102.369931 64.9391982,103.87665 C64.9968359,104.391999 65.134406,104.657174 65.3519087,104.672176 C75.160214,102.827907 80.2886007,101.905773 80.7370687,101.905773 C81.1855367,101.905773 81.3885748,103.217424 81.346183,105.840727 L66.1552015,108.783979 C66.3963822,110.12545 66.6498953,111.323461 66.9157406,112.378013 C67.1920341,113.477821 67.6198413,114.380878 68.1991621,115.087186 C71.5364594,112.404121 73.5359934,110.74145 74.1977641,110.099171 C74.8595349,109.456893 75.3465973,108.706209 75.6589514,107.84712 C77.7394632,108.929049 78.9292335,109.679732 79.2282623,110.099171 C79.3897502,110.365401 79.3897502,110.652007 79.2282623,110.895944 C79.14609,111.02007 78.8473403,111.466226 78.7406394,111.582187 C78.3568188,111.999314 78.01633,112.410568 77.2923387,113.099204 C76.405532,113.942704 75.5041034,114.773625 74.5880529,115.591967 C73.7201955,116.367256 72.2537052,117.582055 70.1885819,119.236364 C70.792386,120.278013 71.6412386,121.2593 72.7351396,122.180226 C73.464695,122.79442 74.4392989,123.348252 75.6589514,123.841722 L77.7860938,116.910605 L81.346183,117.98021 L79.6768056,129.520294 C76.9079263,129.520294 74.5111819,128.951657 72.4865725,127.814383 C69.8769423,126.348488 67.7664853,124.372215 66.1552015,121.885564 L50.7918724,127.814383 L48.8312482,123.515893 L57.1045042,120.596692 L63.4292448,117.98021 C63.2805424,117.003789 63.0773928,116.039447 62.8197962,115.087186 C62.3447523,113.331084 61.8152613,111.587062 61.2313232,109.85512 L52.2954974,110.365401 L51.8549197,109.286663 L48.8312482,111.498363 C48.1799229,110.71919 47.4846049,109.981957 46.7452943,109.286663 C46.1761413,108.751396 45.5629957,108.258069 44.9058574,107.80668 L44.7042135,129.950209 L40.4225168,129.887217 L40.1431756,103.87665 C39.3030169,107.309305 38.2998409,110.510134 37.1336476,113.479136 C36.4984185,115.096361 35.7932859,116.481759 35.0182496,117.635331 L32,113.479136 C33.4734901,110.888984 34.7270281,108.211355 35.7606142,105.446248 C36.5802046,103.253634 37.1713875,100.611615 37.5341631,97.5201894 C34.741125,97.5201894 33.2357842,97.3859634 33.0181409,97.1175114 L33.0181409,92.9319044 L40.1431756,92.9319044 L40.4259808,83.6372094 L44.7042135,83.6372094 Z M135.279585,123.850829 L135.279585,127.767468 L87.2043362,127.767468 L87.2043362,123.850829 L135.279585,123.850829 Z M102.375797,82.9307971 L107.023371,84.4694781 L106.061356,87.3578202 L123.555256,87.3578202 L123.555256,91.278868 L120.015166,95.571025 L120.015166,96.2020292 L130.370444,96.2020292 L130.370444,118.96212 L92.531417,119.495265 L92.531417,100.893221 L89.0609615,102.699664 L86.5908965,98.2629154 C89.3356152,96.5452175 91.7561586,94.8405166 93.8525268,93.1488127 C95.4928776,91.8251007 97.0135331,90.3940589 98.4144932,88.8556873 C99.5524307,87.7320919 100.576829,86.4891118 101.487689,85.1267468 C101.897264,84.5141484 102.1933,83.7821651 102.375797,82.9307971 Z M109.286392,109.901662 L97.247427,109.901662 L97.247427,115.450234 L109.286392,115.450234 L109.286392,109.901662 Z M125.168785,106.971114 L124.915758,109.497796 L114.099105,109.497796 L114.099105,115.450234 L125.605849,115.148591 L125.605849,107.460472 L125.168785,106.971114 Z M109.286392,100.468967 L97.247427,100.468967 L97.247427,105.691152 L109.286392,105.691152 L109.286392,100.468967 Z M125.487315,100.33154 L114.099105,100.33154 L114.099105,105.553725 L125.487315,105.553725 L125.487315,100.33154 Z M117.611761,91.5660633 L102.894154,91.5660633 L98.4144932,95.8090887 L113.334644,95.8090887 L117.611761,91.5660633 Z M68.8487677,83 C70.1637878,84.0848549 71.4421879,85.1921395 72.6839681,86.3218537 C73.825932,87.3607598 74.931276,88.4220955 76,89.505861 C75.5619873,89.9457821 75.0935435,90.353356 74.5946685,90.7285826 C73.9881995,91.1847356 73.3512994,91.6085414 72.6839681,92 L72.6839681,92 L66,86.0539388 L67.1397048,84.6540039 Z" id="形状结合" fill="#FFFFFF"></path>
    </g>
</svg>