
<svg xmlns:xlink="http://www.w3.org/1999/xlink" xmlns="http://www.w3.org/2000/svg" version="1.1" viewBox="0 0 1025 1024" height="1024px" width="1025px">
    <defs>
        <linearGradient id="linearGradient-gcqkp9fzmd-1" y2="76.3470468%" x2="91.7011934%" y1="28.6297862%" x1="5.71800164%">
            <stop offset="0%" stop-color="#63B9AF"></stop>
            <stop offset="60.7586627%" stop-color="#5494DF"></stop>
            <stop offset="100%" stop-color="#866AE8"></stop>
        </linearGradient>
        <rect rx="318" height="1024" width="1024" y="1789" x="1434.04077" id="path-gcqkp9fzmd-2"></rect>
    </defs>
    <g fill-rule="evenodd" fill="none" stroke-width="1" stroke="none" id="页面-1">
        <g transform="translate(-1434.000000, -1789.000000)" id="画板">
            <g id="矩形">
                <use xlink:href="#path-gcqkp9fzmd-2" style="mix-blend-mode: lighten;" fill-rule="evenodd" fill="url(#linearGradient-gcqkp9fzmd-1)"></use>
                <rect rx="318" height="1023" width="1023" y="1789.5" x="1434.54077" stroke-linejoin="square" stroke-width="1" stroke="#979797"></rect>
            </g>
            <path fill="#FFFFFF" id="形状结合" d="M1642.72506,2108 L1642.72506,2186.55193 L1690.1955,2186.55193 L1690.1955,2215.90289 L1642.72506,2215.90289 L1642.72506,2236.56717 C1652.25658,2248.26519 1661.50141,2260.55962 1670.45954,2273.45045 C1680.25972,2287.55302 1689.77321,2302.25199 1699,2317.54736 L1681.76231,2344.64426 L1651.50791,2283.52899 L1642.72506,2266.24914 L1642.72506,2496 L1612.72581,2496 L1612.72581,2276.08275 C1608.16868,2289.29372 1601.0589,2305.87413 1591.39646,2325.82399 C1580.22402,2347.78334 1568.5332,2368.1554 1556.32399,2386.94016 L1543,2354.0377 C1567.93697,2319.3459 1585.55526,2288.9932 1595.85487,2262.97961 C1606.15448,2236.96602 1611.77813,2221.27378 1612.72581,2215.90289 L1554.0895,2215.90289 L1554.0895,2186.55193 L1612.72581,2186.55193 L1612.72581,2108 L1642.72506,2108 Z M1800.37001,2108 L1800.37001,2201.79528 L1903.28517,2185.82042 L1907.92076,2214.48259 L1801.29556,2231.4694 C1800.99351,2242.40542 1801.20677,2252.86247 1801.93535,2262.84056 C1802.5349,2271.05143 1803.64976,2278.99252 1805.27993,2286.66381 L1919.76022,2266.98679 L1924.2013,2294.95702 L1808.6308,2315.56902 C1810.69035,2332.73153 1812.98593,2346.54723 1815.51752,2357.01612 C1818.8424,2370.76549 1822.4033,2381.16805 1826.20023,2388.2238 C1835.41372,2380.45834 1844.36145,2371.67883 1853.04343,2361.88525 C1863.5139,2350.0742 1873.71862,2337.24909 1883.65758,2323.40992 L1907.92076,2339.91321 C1895.46837,2356.31528 1882.90789,2371.43936 1870.23933,2385.28546 C1859.48913,2397.0349 1848.63084,2407.50635 1837.66448,2416.69981 C1846.83236,2432.14298 1855.9514,2444.04139 1865.0216,2452.39503 C1872.28857,2459.08791 1879.50669,2462.23603 1886.67597,2461.83938 C1892.28291,2459.74939 1895.89663,2456.60128 1897.51712,2452.39503 C1904.19262,2435.06774 1908.8749,2416.68232 1911.56396,2397.23878 L1938,2414.24417 C1933.27272,2439.32922 1925.27984,2460.49087 1914.02136,2477.7291 C1909.38769,2485.46118 1901.64865,2490.55148 1890.80424,2493 C1877.88661,2493 1863.91559,2487.13834 1848.89119,2475.41501 C1834.55984,2463.29149 1823.43528,2449.93154 1815.51752,2435.33518 C1799.72756,2446.16296 1784.25427,2455.76391 1769.09765,2464.13805 C1748.74699,2475.38193 1727.67276,2483.22459 1705.87497,2487.66602 L1688,2464.13805 C1708.15807,2457.07762 1728.29759,2448.79124 1748.41857,2439.27893 C1766.01832,2430.95854 1783.64399,2420.64598 1801.29556,2408.34125 C1795.59682,2392.83976 1790.53917,2377.35442 1786.12262,2361.88525 C1782.95449,2350.78873 1780.15046,2337.18492 1777.71053,2321.07381 L1708.24624,2332.8326 L1703.47856,2305.59138 L1773.95622,2292.54624 L1769.09765,2235.96763 L1705.87497,2244.9922 L1701.36663,2217.77064 L1769.09765,2207.13471 L1769.09765,2108 L1800.37001,2108 Z M2350,2449 L2350,2479 L1992,2479 L1992,2449 L2350,2449 Z M2107.42946,2106 L2139.36442,2112.78794 L2117.32002,2144.50331 L2265.07386,2144.50331 L2265.07386,2167.45526 C2258.84737,2176.37229 2252.38547,2184.62238 2245.68817,2192.20551 C2238.0285,2200.8783 2230.1603,2208.9603 2222.08358,2216.45152 L2220.56675,2217.84919 L2310,2217.84919 L2310,2401 L2035.48826,2401 L2035.48826,2228.3222 L1995.70126,2256.87763 L1976,2232.55101 C2003.14456,2215.39121 2028.60956,2195.61498 2052.39501,2173.2223 C2072.78269,2154.02844 2091.1275,2131.621 2107.42946,2106 Z M2157.07118,2322.15221 L2066.97528,2322.15221 L2066.97528,2371.54951 L2157.07118,2371.54951 L2157.07118,2322.15221 Z M2280.10537,2322.15221 L2188.07192,2322.15221 L2188.07192,2371.54951 L2280.10537,2371.54951 L2280.10537,2322.15221 Z M2157.07118,2247.57197 L2066.97528,2247.57197 L2066.97528,2293.97473 L2157.07118,2293.97473 L2157.07118,2247.57197 Z M2279.89403,2247.57197 L2187.86058,2247.57197 L2187.86058,2293.97473 L2279.89403,2293.97473 L2279.89403,2247.57197 Z M2225.51269,2173.2223 L2093.79371,2173.2223 C2088.04922,2179.7106 2082.08014,2186.04122 2075.88646,2192.21417 C2067.07252,2200.9986 2058.03399,2209.62534 2048.77086,2218.09441 L2181.71473,2218.09441 C2188.51722,2211.8003 2195.17398,2205.31789 2201.685,2198.64718 C2209.7733,2190.36052 2217.71586,2181.88556 2225.51269,2173.2223 Z M1850.00756,2109 C1859.02233,2117.06489 1867.20386,2125.27475 1874.55215,2133.62956 C1882.18549,2142.30848 1889.26271,2150.9893 1895.78381,2159.67201 L1897,2161.30004 L1873.65492,2178 C1866.02791,2168.45943 1858.14546,2159.04699 1850.00756,2149.76268 C1843.33519,2142.15035 1836.45591,2134.6418 1829.36973,2127.23704 L1827,2124.77263 L1850.00756,2109 Z"></path>
        </g>
    </g>
</svg>