
<svg xmlns:xlink="http://www.w3.org/1999/xlink" xmlns="http://www.w3.org/2000/svg" version="1.1" viewBox="0 0 1040 1040" height="1040px" width="1040px">
    <defs>
        <linearGradient id="linearGradient-op97xru34j-1" y2="76.3470468%" x2="91.7011934%" y1="28.6297862%" x1="5.71800164%">
            <stop offset="0%" stop-color="#63B9AF"></stop>
            <stop offset="60.7586627%" stop-color="#5494DF"></stop>
            <stop offset="100%" stop-color="#866AE8"></stop>
        </linearGradient>
    </defs>
    <g fill-rule="evenodd" fill="none" stroke-width="1" stroke="none" id="页面-1">
        <g transform="translate(-55.000000, -726.000000)" id="画板">
            <circle r="520" cy="1246" cx="575" style="mix-blend-mode: lighten;" fill="url(#linearGradient-op97xru34j-1)" id="椭圆形"></circle>
            <path fill="#FFFFFF" id="形状结合" d="M257.725057,1031 L257.725057,1109.55193 L305.195501,1109.55193 L305.195501,1138.90289 L257.725057,1138.90289 L257.725057,1159.56717 C267.25658,1171.26519 276.501406,1183.55962 285.459535,1196.45045 C295.259721,1210.55302 304.773209,1225.25199 314,1240.54736 L296.762312,1267.64426 L266.50791,1206.52899 L257.725057,1189.24914 L257.725057,1419 L227.725808,1419 L227.725808,1199.08275 C223.168682,1212.29372 216.058901,1228.87413 206.396462,1248.82399 C195.224024,1270.78334 183.533199,1291.1554 171.323987,1309.94016 L158,1277.0377 C182.936967,1242.3459 200.555258,1211.9932 210.854871,1185.97961 C221.154484,1159.96602 226.778129,1144.27378 227.725808,1138.90289 L169.089504,1138.90289 L169.089504,1109.55193 L227.725808,1109.55193 L227.725808,1031 L257.725057,1031 Z M415.37001,1031 L415.37001,1124.79528 L518.285174,1108.82042 L522.920763,1137.48259 L416.295564,1154.4694 C415.993511,1165.40542 416.206774,1175.86247 416.935354,1185.84056 C417.534897,1194.05143 418.649756,1201.99252 420.279932,1209.66381 L534.760224,1189.98679 L539.2013,1217.95702 L423.630799,1238.56902 C425.690352,1255.73153 427.985926,1269.54723 430.517519,1280.01612 C433.842402,1293.76549 437.403305,1304.16805 441.200227,1311.2238 C450.413717,1303.45834 459.361452,1294.67883 468.043433,1284.88525 C478.513902,1273.0742 488.718617,1260.24909 498.657576,1246.40992 L522.920763,1262.91321 C510.468367,1279.31528 497.907889,1294.43936 485.23933,1308.28546 C474.489127,1320.0349 463.630844,1330.50635 452.664479,1339.69981 C461.832364,1355.14298 470.951405,1367.04139 480.0216,1375.39503 C487.288569,1382.08791 494.506693,1385.23603 501.675972,1384.83938 C507.282912,1382.74939 510.896629,1379.60128 512.517122,1375.39503 C519.192624,1358.06774 523.874902,1339.68232 526.563958,1320.23878 L553,1337.24417 C548.272717,1362.32922 540.279835,1383.49087 529.021356,1400.7291 C524.387694,1408.46118 516.648655,1413.55148 505.804237,1416 C492.886608,1416 478.915591,1410.13834 463.891186,1398.41501 C449.559839,1386.29149 438.435284,1372.93154 430.517519,1358.33518 C414.727563,1369.16296 399.254274,1378.76391 384.097652,1387.13805 C363.746989,1398.38193 342.67276,1406.22459 320.874966,1410.66602 L303,1387.13805 C323.15807,1380.07762 343.297592,1371.79124 363.418565,1362.27893 C381.018322,1353.95854 398.643988,1343.64598 416.295564,1331.34125 C410.596817,1315.83976 405.53917,1300.35442 401.122622,1284.88525 C397.954494,1273.78873 395.150464,1260.18492 392.710531,1244.07381 L323.246238,1255.8326 L318.478557,1228.59138 L388.956219,1215.54624 L384.097652,1158.96763 L320.874966,1167.9922 L316.366629,1140.77064 L384.097652,1130.13471 L384.097652,1031 L415.37001,1031 Z M465.007565,1032 C474.022332,1040.06489 482.203861,1048.27475 489.55215,1056.62956 C497.662578,1065.85091 505.145194,1075.07441 512,1084.30004 L512,1084.30004 L488.654922,1101 C481.027912,1091.45943 473.145459,1082.04699 465.007565,1072.76268 C457.593819,1064.30453 449.924631,1055.97451 442,1047.77263 L442,1047.77263 Z"></path>
            <path fill="#FFFFFF" id="形状结合" d="M965,1372 L965,1402 L607,1402 L607,1372 L965,1372 Z M722.429458,1029 L754.364421,1035.78794 L732.320022,1067.50331 L880.073856,1067.50331 L880.073856,1090.45526 C873.847366,1099.37229 867.38547,1107.62238 860.688168,1115.20551 C853.028498,1123.8783 845.160303,1131.9603 837.083582,1139.45152 L835.566753,1140.84919 L925,1140.84919 L925,1324 L650.488258,1324 L650.488258,1151.3222 L610.70126,1179.87763 L591,1155.55101 C618.14456,1138.39121 643.609564,1118.61498 667.395013,1096.2223 C687.782688,1077.02844 706.127503,1054.621 722.429458,1029 Z M772.07118,1245.15221 L681.975276,1245.15221 L681.975276,1294.54951 L772.07118,1294.54951 L772.07118,1245.15221 Z M895.105373,1245.15221 L803.071922,1245.15221 L803.071922,1294.54951 L895.105373,1294.54951 L895.105373,1245.15221 Z M772.07118,1170.57197 L681.975276,1170.57197 L681.975276,1216.97473 L772.07118,1216.97473 L772.07118,1170.57197 Z M894.894029,1170.57197 L802.860578,1170.57197 L802.860578,1216.97473 L894.894029,1216.97473 L894.894029,1170.57197 Z M840.512689,1096.2223 L708.793707,1096.2223 C703.049223,1102.7106 697.080141,1109.04122 690.88646,1115.21417 C682.072524,1123.9986 673.033989,1132.62534 663.770856,1141.09441 L796.714726,1141.09441 C803.517219,1134.8003 810.173977,1128.31789 816.685,1121.64718 C824.773298,1113.36052 832.71586,1104.88556 840.512689,1096.2223 Z"></path>
        </g>
    </g>
</svg>