<?xml version="1.0" standalone="no"?><!DOCTYPE svg PUBLIC "-//W3C//DTD SVG 1.1//EN" "http://www.w3.org/Graphics/SVG/1.1/DTD/svg11.dtd"><svg node-id="1" sillyvg="true" template-height="1040" template-width="4122" version="1.1" viewBox="0 0 4122 1040" width="200px" preserveAspectRatio="xMidYMid meet" xmlns="http://www.w3.org/2000/svg" xmlns:xlink="http://www.w3.org/1999/xlink"><defs node-id="14"><linearGradient gradientUnits="objectBoundingBox" id="linearGradient-ccd28a541u-1" node-id="3" spreadMethod="pad" x1="0.057180017" x2="0.9170119" y1="0.28629786" y2="0.7634705"><stop offset="0" stop-color="#63b9af"></stop><stop offset="0.6075866" stop-color="#5494df"></stop><stop offset="1" stop-color="#866ae8"></stop></linearGradient></defs><g node-id="23"><g node-id="24"><path d="M 1040.00 520.00 L 1039.73 536.58 L 1038.95 553.04 L 1037.65 569.40 L 1035.84 585.67 L 1033.52 601.84 L 1030.69 617.96 L 1027.37 633.92 L 1023.56 649.73 L 1019.26 665.39 L 1014.47 680.92 L 1009.20 696.30 L 1003.46 711.48 L 997.26 726.46 L 990.58 741.25 L 983.43 755.86 L 975.84 770.23 L 967.80 784.34 L 959.32 798.21 L 950.38 811.85 L 940.98 825.25 L 931.19 838.32 L 920.97 851.10 L 910.32 863.59 L 899.23 875.78 L 887.70 887.70 L 875.78 899.23 L 863.59 910.32 L 851.10 920.97 L 838.32 931.19 L 825.25 940.98 L 811.85 950.38 L 798.21 959.32 L 784.34 967.80 L 770.23 975.84 L 755.86 983.44 L 741.25 990.58 L 726.46 997.26 L 711.48 1003.46 L 696.30 1009.20 L 680.92 1014.47 L 665.39 1019.26 L 649.72 1023.56 L 633.92 1027.37 L 617.96 1030.69 L 601.84 1033.52 L 585.67 1035.84 L 569.40 1037.65 L 553.04 1038.95 L 536.58 1039.73 L 520.00 1040.00 L 503.42 1039.73 L 486.96 1038.95 L 470.60 1037.65 L 454.33 1035.84 L 438.16 1033.52 L 422.04 1030.69 L 406.08 1027.37 L 390.28 1023.56 L 374.61 1019.26 L 359.08 1014.47 L 343.70 1009.20 L 328.52 1003.46 L 313.54 997.26 L 298.75 990.58 L 284.14 983.43 L 269.77 975.84 L 255.66 967.80 L 241.79 959.31 L 228.15 950.38 L 214.75 940.98 L 201.68 931.19 L 188.90 920.97 L 176.41 910.32 L 164.22 899.23 L 152.30 887.70 L 140.77 875.78 L 129.68 863.59 L 119.03 851.10 L 108.81 838.32 L 99.02 825.25 L 89.62 811.85 L 80.68 798.21 L 72.20 784.34 L 64.16 770.23 L 56.57 755.86 L 49.42 741.25 L 42.74 726.46 L 36.54 711.48 L 30.80 696.30 L 25.53 680.92 L 20.74 665.39 L 16.44 649.73 L 12.63 633.92 L 9.31 617.96 L 6.48 601.84 L 4.16 585.67 L 2.35 569.40 L 1.05 553.04 L 0.27 536.58 L 0.00 520.00 L 0.27 503.42 L 1.05 486.96 L 2.35 470.60 L 4.16 454.33 L 6.48 438.16 L 9.31 422.04 L 12.63 406.08 L 16.44 390.28 L 20.74 374.61 L 25.53 359.08 L 30.80 343.70 L 36.54 328.52 L 42.74 313.54 L 49.42 298.75 L 56.57 284.14 L 64.16 269.77 L 72.20 255.66 L 80.68 241.79 L 89.62 228.15 L 99.02 214.75 L 108.81 201.68 L 119.03 188.90 L 129.68 176.41 L 140.77 164.22 L 152.30 152.30 L 164.22 140.77 L 176.41 129.68 L 188.90 119.03 L 201.68 108.81 L 214.75 99.02 L 228.15 89.62 L 241.79 80.69 L 255.66 72.20 L 269.77 64.16 L 284.14 56.57 L 298.75 49.42 L 313.54 42.74 L 328.52 36.54 L 343.70 30.80 L 359.08 25.53 L 374.61 20.74 L 390.28 16.44 L 406.08 12.63 L 422.04 9.31 L 438.16 6.48 L 454.33 4.16 L 470.60 2.35 L 486.96 1.05 L 503.42 0.27 L 520.00 0.00 L 536.58 0.27 L 553.04 1.05 L 569.40 2.35 L 585.67 4.16 L 601.84 6.48 L 617.96 9.31 L 633.92 12.63 L 649.72 16.44 L 665.39 20.74 L 680.92 25.53 L 696.30 30.80 L 711.48 36.54 L 726.46 42.74 L 741.25 49.42 L 755.86 56.57 L 770.23 64.16 L 784.34 72.20 L 798.21 80.68 L 811.85 89.62 L 825.25 99.02 L 838.32 108.81 L 851.10 119.03 L 863.59 129.68 L 875.78 140.77 L 887.70 152.30 L 899.23 164.22 L 910.32 176.41 L 920.97 188.90 L 931.19 201.68 L 940.98 214.75 L 950.38 228.15 L 959.31 241.79 L 967.80 255.66 L 975.84 269.77 L 983.43 284.14 L 990.58 298.75 L 997.26 313.54 L 1003.46 328.52 L 1009.20 343.70 L 1014.47 359.08 L 1019.26 374.61 L 1023.56 390.27 L 1027.37 406.08 L 1030.69 422.04 L 1033.52 438.16 L 1035.84 454.33 L 1037.65 470.60 L 1038.95 486.96 L 1039.73 503.42 L 1040.00 520.00 Z" fill="url(#linearGradient-ccd28a541u-1)" fill-rule="evenodd" group-id="1,2" id="椭圆形" node-id="9" stroke="none" target-height="1040" target-width="1040" target-x="0" target-y="0"></path></g><path d="M 202.73 305.00 L 202.73 383.55 L 250.20 383.55 L 250.20 412.90 L 202.73 412.90 L 202.73 433.57 L 212.10 445.38 L 221.34 457.68 L 230.46 470.45 L 240.10 484.66 L 249.61 499.35 L 259.00 514.55 L 241.76 541.64 L 211.51 480.53 L 202.73 463.25 L 202.73 693.00 L 172.73 693.00 L 172.73 473.08 L 169.20 482.67 L 164.58 494.01 L 158.70 507.32 L 151.40 522.82 L 142.76 539.29 L 134.03 554.95 L 125.22 569.82 L 116.32 583.94 L 103.00 551.04 L 114.19 535.05 L 124.00 520.15 L 132.55 506.29 L 139.92 493.40 L 146.20 481.42 L 151.49 470.30 L 155.85 459.98 L 164.34 438.08 L 169.28 424.49 L 171.77 416.77 L 172.73 412.90 L 114.09 412.90 L 114.09 383.55 L 172.73 383.55 L 172.73 305.00 L 202.73 305.00 Z M 360.37 305.00 L 360.37 398.80 L 463.29 382.82 L 467.92 411.48 L 361.30 428.47 L 361.17 439.41 L 361.38 449.86 L 361.94 459.84 L 362.71 468.03 L 363.83 475.96 L 365.28 483.66 L 479.76 463.99 L 484.20 491.96 L 368.63 512.57 L 370.94 529.78 L 373.25 543.42 L 375.52 554.02 L 378.34 564.70 L 381.08 573.27 L 383.70 580.01 L 386.20 585.22 L 395.20 577.24 L 404.15 568.47 L 413.04 558.89 L 423.29 546.90 L 433.50 534.08 L 443.66 520.41 L 467.92 536.91 L 458.39 549.19 L 448.93 560.83 L 439.55 571.86 L 430.24 582.29 L 421.99 591.03 L 413.81 599.17 L 405.70 606.72 L 397.66 613.70 L 403.61 623.22 L 409.30 631.44 L 414.76 638.46 L 420.00 644.41 L 425.02 649.39 L 428.96 652.68 L 432.73 655.17 L 436.35 656.97 L 439.85 658.15 L 443.28 658.76 L 446.68 658.84 L 450.02 657.34 L 452.68 655.65 L 454.78 653.77 L 456.37 651.69 L 457.52 649.39 L 461.25 638.98 L 464.52 628.27 L 467.34 617.25 L 469.69 605.91 L 471.56 594.24 L 498.00 611.24 L 495.65 622.28 L 492.91 632.59 L 489.81 642.23 L 486.36 651.22 L 482.57 659.61 L 478.46 667.44 L 474.02 674.73 L 471.92 677.79 L 469.46 680.54 L 466.63 683.01 L 463.39 685.19 L 459.71 687.09 L 455.53 688.70 L 450.80 690.00 L 445.63 689.69 L 440.25 688.75 L 434.63 687.13 L 428.72 684.77 L 422.49 681.59 L 415.89 677.50 L 408.89 672.42 L 401.80 666.07 L 395.36 659.60 L 389.54 653.00 L 384.31 646.26 L 379.64 639.37 L 375.52 632.34 L 359.56 642.93 L 344.09 652.52 L 329.10 661.14 L 318.75 666.53 L 308.34 671.32 L 297.86 675.52 L 287.30 679.13 L 276.64 682.18 L 265.87 684.67 L 248.00 661.14 L 263.00 655.66 L 278.07 649.69 L 293.21 643.24 L 308.42 636.28 L 318.77 631.16 L 329.23 625.52 L 339.80 619.35 L 350.49 612.63 L 361.30 605.34 L 355.79 589.78 L 350.73 574.29 L 346.12 558.89 L 343.25 547.70 L 340.43 534.20 L 337.71 518.07 L 268.25 529.83 L 263.48 502.59 L 333.96 489.55 L 329.10 432.97 L 265.87 441.99 L 261.37 414.77 L 329.10 404.13 L 329.10 305.00 L 360.37 305.00 Z M 410.01 306.00 L 418.87 314.23 L 427.04 322.44 L 434.55 330.63 L 442.54 339.96 L 450.02 349.18 L 457.00 358.30 L 457.00 358.30 L 433.65 375.00 L 422.04 360.80 L 410.01 346.76 L 398.71 334.19 L 387.00 321.77 L 387.00 321.77 Z" fill="#ffffff" fill-rule="evenodd" group-id="1" id="形状结合" node-id="10" stroke="none" target-height="388" target-width="395" target-x="103" target-y="305"></path><path d="M 910.00 646.00 L 910.00 676.00 L 552.00 676.00 L 552.00 646.00 L 910.00 646.00 Z M 667.43 303.00 L 699.36 309.79 L 677.32 341.50 L 825.07 341.50 L 825.07 364.46 L 818.69 373.26 L 812.23 381.50 L 805.69 389.21 L 797.89 397.75 L 790.03 405.83 L 782.08 413.45 L 780.57 414.85 L 870.00 414.85 L 870.00 598.00 L 595.49 598.00 L 595.49 425.32 L 555.70 453.88 L 536.00 429.55 L 549.40 420.78 L 562.52 411.57 L 575.38 401.91 L 587.97 391.81 L 600.31 381.25 L 612.39 370.22 L 622.27 360.51 L 631.86 350.23 L 641.17 339.36 L 650.20 327.88 L 658.95 315.77 L 667.43 303.00 Z M 717.07 519.15 L 626.98 519.15 L 626.98 568.55 L 717.07 568.55 L 717.07 519.15 Z M 840.11 519.15 L 748.07 519.15 L 748.07 568.55 L 840.11 568.55 L 840.11 519.15 Z M 717.07 444.57 L 626.98 444.57 L 626.98 490.97 L 717.07 490.97 L 717.07 444.57 Z M 839.89 444.57 L 747.86 444.57 L 747.86 490.97 L 839.89 490.97 L 839.89 444.57 Z M 785.51 370.22 L 653.79 370.22 L 645.02 379.83 L 635.89 389.21 L 622.51 402.26 L 608.77 415.09 L 741.71 415.09 L 751.80 405.52 L 761.68 395.65 L 773.70 383.09 L 785.51 370.22 Z" fill="#ffffff" fill-rule="evenodd" group-id="1" id="形状结合" node-id="11" stroke="none" target-height="373" target-width="374" target-x="536" target-y="303"></path><path d="M 1387.06 363.50 L 1424.93 645.50 L 1339.94 645.50 L 1329.94 568.50 L 1209.17 568.50 L 1175.67 645.50 L 1095.25 645.50 L 1205.59 376.88 L 1191.74 363.50 L 1387.06 363.50 Z M 1310.94 410.50 L 1276.67 410.50 L 1228.24 521.50 L 1325.57 521.50 L 1310.94 410.50 Z M 1754.43 334.50 L 1711.56 645.50 L 1496.00 645.50 L 1495.48 645.50 L 1490.80 645.16 L 1486.70 644.31 L 1483.09 642.98 L 1479.91 641.20 L 1477.11 638.94 L 1474.65 636.20 L 1472.24 632.54 L 1470.31 628.52 L 1468.87 624.09 L 1467.93 619.20 L 1467.51 613.77 L 1467.50 613.14 L 1467.50 612.53 L 1491.44 435.50 L 1644.93 435.50 L 1659.43 334.50 L 1754.43 334.50 Z M 1640.58 482.50 L 1579.07 482.50 L 1560.41 598.50 L 1622.43 598.50 L 1640.58 482.50 Z M 2146.43 435.50 L 2118.06 645.50 L 2032.58 645.50 L 2056.58 482.50 L 2017.07 482.50 L 1993.07 645.50 L 1917.58 645.50 L 1942.08 482.50 L 1903.07 482.50 L 1878.07 645.50 L 1792.58 645.50 L 1821.52 448.87 L 1811.97 435.50 L 2146.43 435.50 Z M 2311.43 435.50 L 2282.56 645.50 L 2187.58 645.50 L 2216.53 448.82 L 2202.74 435.50 L 2311.43 435.50 Z M 2639.43 435.50 L 2610.56 645.50 L 2515.58 645.50 L 2539.58 482.50 L 2481.07 482.50 L 2457.07 645.50 L 2362.08 645.50 L 2391.03 448.82 L 2377.24 435.50 L 2639.43 435.50 Z M 3012.93 363.50 L 2994.01 516.40 L 2993.84 516.99 L 2992.28 521.53 L 2990.33 525.76 L 2987.98 529.72 L 2985.23 533.42 L 2982.06 536.88 L 2978.44 540.11 L 2973.70 543.58 L 2969.22 546.15 L 2964.97 547.94 L 2960.88 549.03 L 2956.93 549.48 L 2956.47 549.50 L 2787.57 549.50 L 2773.07 645.50 L 2683.07 645.50 L 2716.53 376.81 L 2702.74 363.50 L 3012.93 363.50 Z M 2913.59 410.50 L 2807.05 410.50 L 2796.94 502.50 L 2898.93 502.50 L 2913.59 410.50 Z M 3316.92 435.50 L 3287.97 622.14 L 3306.95 645.50 L 3082.50 645.50 L 3081.98 645.50 L 3077.30 645.16 L 3073.20 644.31 L 3069.59 642.98 L 3066.41 641.20 L 3063.61 638.94 L 3061.15 636.20 L 3058.74 632.54 L 3056.81 628.52 L 3055.37 624.09 L 3054.43 619.20 L 3054.01 613.77 L 3054.00 613.14 L 3054.00 612.54 L 3068.43 521.50 L 3212.41 521.50 L 3220.11 482.50 L 3168.10 482.50 L 3163.60 501.50 L 3068.62 501.50 L 3082.90 435.50 L 3316.92 435.50 Z M 3203.09 568.50 L 3154.08 568.50 L 3148.91 598.50 L 3197.92 598.50 L 3203.09 568.50 Z M 3632.93 435.50 L 3604.06 645.50 L 3509.08 645.50 L 3533.08 482.50 L 3474.57 482.50 L 3450.57 645.50 L 3355.58 645.50 L 3384.53 448.82 L 3370.74 435.50 L 3632.93 435.50 Z M 3946.42 435.50 L 3927.57 559.00 L 3774.06 559.00 L 3768.93 598.50 L 3904.17 598.50 L 3927.22 580.26 L 3913.10 645.50 L 3702.50 645.50 L 3701.98 645.50 L 3697.30 645.16 L 3693.20 644.31 L 3689.59 642.98 L 3686.41 641.20 L 3683.61 638.94 L 3681.15 636.20 L 3678.74 632.54 L 3676.81 628.52 L 3675.37 624.09 L 3674.43 619.20 L 3674.01 613.77 L 3674.00 613.14 L 3674.00 612.53 L 3697.94 435.50 L 3946.42 435.50 Z M 3847.10 482.50 L 3788.07 482.50 L 3783.41 512.00 L 3841.92 512.00 L 3847.10 482.50 Z M 4120.92 334.50 L 4082.48 598.12 L 4115.54 645.50 L 4016.00 645.50 L 4015.48 645.50 L 4010.80 645.16 L 4006.70 644.31 L 4003.09 642.98 L 3999.91 641.20 L 3997.11 638.94 L 3994.65 636.20 L 3992.19 632.46 L 3990.24 628.34 L 3988.79 623.79 L 3987.87 618.74 L 3987.50 613.14 L 3987.50 613.14 L 3987.50 612.53 L 4026.03 348.32 L 4012.21 334.50 L 4120.92 334.50 Z M 2320.91 363.50 L 2311.58 420.00 L 2221.05 420.00 L 2225.96 363.50 L 2320.91 363.50 Z" fill="#333333" fill-rule="evenodd" group-id="1" id="形状结合" node-id="12" stroke="#979797" stroke-linecap="butt" stroke-width="1" target-height="311" target-width="3025.6758" target-x="1095.246" target-y="334.5"></path></g></svg>