<svg node-id="1" sillyvg="true" template-height="1040" template-width="3902" version="1.1" viewBox="0 0 3902 1040" width="200px" preserveAspectRatio="xMidYMid meet" xmlns="http://www.w3.org/2000/svg" xmlns:xlink="http://www.w3.org/1999/xlink"><defs node-id="20"><linearGradient gradientUnits="objectBoundingBox" id="linearGradient-9decvnerd6-1" node-id="3" spreadMethod="pad" x1="0.057180017" x2="0.9170119" y1="0.28629786" y2="0.7634705"><stop offset="0" stop-color="#63b9af"/><stop offset="0.6075866" stop-color="#5494df"/><stop offset="1" stop-color="#866ae8"/></linearGradient></defs><g node-id="29"><g node-id="30"><path d="M 1040.00 520.00 L 1039.73 536.58 L 1038.95 553.04 L 1037.65 569.40 L 1035.84 585.67 L 1033.52 601.84 L 1030.69 617.96 L 1027.37 633.92 L 1023.56 649.73 L 1019.26 665.39 L 1014.47 680.92 L 1009.20 696.30 L 1003.46 711.48 L 997.26 726.46 L 990.58 741.25 L 983.43 755.86 L 975.84 770.23 L 967.80 784.34 L 959.32 798.21 L 950.38 811.85 L 940.98 825.25 L 931.19 838.32 L 920.97 851.10 L 910.32 863.59 L 899.23 875.78 L 887.70 887.70 L 875.78 899.23 L 863.59 910.32 L 851.10 920.97 L 838.32 931.19 L 825.25 940.98 L 811.85 950.38 L 798.21 959.31 L 784.34 967.80 L 770.23 975.84 L 755.86 983.44 L 741.25 990.58 L 726.46 997.26 L 711.48 1003.46 L 696.30 1009.20 L 680.92 1014.47 L 665.39 1019.26 L 649.72 1023.56 L 633.92 1027.37 L 617.96 1030.69 L 601.84 1033.52 L 585.67 1035.84 L 569.40 1037.65 L 553.04 1038.95 L 536.58 1039.73 L 520.00 1040.00 L 503.42 1039.73 L 486.96 1038.95 L 470.60 1037.65 L 454.33 1035.84 L 438.16 1033.52 L 422.04 1030.69 L 406.08 1027.37 L 390.28 1023.56 L 374.61 1019.26 L 359.08 1014.47 L 343.70 1009.20 L 328.52 1003.46 L 313.54 997.26 L 298.75 990.58 L 284.14 983.43 L 269.77 975.84 L 255.66 967.80 L 241.79 959.31 L 228.15 950.38 L 214.75 940.98 L 201.68 931.19 L 188.90 920.97 L 176.41 910.32 L 164.22 899.23 L 152.30 887.70 L 140.77 875.78 L 129.68 863.59 L 119.03 851.10 L 108.81 838.32 L 99.02 825.25 L 89.62 811.85 L 80.68 798.21 L 72.20 784.34 L 64.16 770.23 L 56.57 755.86 L 49.42 741.25 L 42.74 726.46 L 36.54 711.48 L 30.80 696.30 L 25.53 680.92 L 20.74 665.39 L 16.44 649.72 L 12.63 633.92 L 9.31 617.96 L 6.48 601.84 L 4.16 585.67 L 2.35 569.40 L 1.05 553.04 L 0.27 536.58 L 0.00 520.00 L 0.27 503.42 L 1.05 486.96 L 2.35 470.60 L 4.16 454.34 L 6.48 438.16 L 9.31 422.04 L 12.63 406.09 L 16.44 390.28 L 20.74 374.61 L 25.53 359.08 L 30.80 343.70 L 36.54 328.52 L 42.74 313.54 L 49.42 298.75 L 56.57 284.14 L 64.16 269.77 L 72.20 255.66 L 80.68 241.79 L 89.62 228.15 L 99.02 214.75 L 108.81 201.68 L 119.03 188.90 L 129.68 176.42 L 140.77 164.22 L 152.30 152.30 L 164.22 140.77 L 176.41 129.68 L 188.90 119.03 L 201.68 108.81 L 214.75 99.02 L 228.15 89.62 L 241.79 80.69 L 255.66 72.20 L 269.77 64.16 L 284.14 56.57 L 298.75 49.42 L 313.54 42.74 L 328.52 36.54 L 343.70 30.80 L 359.08 25.53 L 374.61 20.74 L 390.28 16.44 L 406.08 12.63 L 422.04 9.31 L 438.16 6.48 L 454.33 4.16 L 470.60 2.35 L 486.96 1.05 L 503.42 0.27 L 520.00 0.00 L 536.58 0.27 L 553.04 1.05 L 569.40 2.35 L 585.67 4.16 L 601.84 6.48 L 617.96 9.31 L 633.92 12.63 L 649.73 16.44 L 665.39 20.74 L 680.92 25.53 L 696.30 30.80 L 711.48 36.54 L 726.46 42.74 L 741.25 49.42 L 755.86 56.57 L 770.23 64.16 L 784.34 72.20 L 798.21 80.69 L 811.85 89.62 L 825.25 99.02 L 838.32 108.81 L 851.10 119.03 L 863.59 129.68 L 875.78 140.77 L 887.70 152.30 L 899.23 164.22 L 910.32 176.42 L 920.97 188.90 L 931.19 201.68 L 940.98 214.75 L 950.38 228.15 L 959.32 241.79 L 967.80 255.66 L 975.84 269.77 L 983.44 284.14 L 990.58 298.75 L 997.26 313.54 L 1003.46 328.52 L 1009.20 343.70 L 1014.47 359.08 L 1019.26 374.61 L 1023.56 390.27 L 1027.37 406.08 L 1030.69 422.04 L 1033.52 438.16 L 1035.84 454.33 L 1037.65 470.60 L 1038.95 486.96 L 1039.73 503.42 L 1040.00 520.00 Z" fill="url(#linearGradient-9decvnerd6-1)" fill-rule="evenodd" group-id="1,2" id="椭圆形" node-id="9" stroke="none" target-height="1040" target-width="1040" target-x="0" target-y="0"/></g><path d="M 202.73 305.00 L 202.73 383.55 L 250.20 383.55 L 250.20 412.90 L 202.73 412.90 L 202.73 433.57 L 212.10 445.38 L 221.34 457.68 L 230.46 470.45 L 240.10 484.66 L 249.61 499.35 L 259.00 514.55 L 241.76 541.64 L 211.51 480.53 L 202.73 463.25 L 202.73 693.00 L 172.73 693.00 L 172.73 473.08 L 169.20 482.67 L 164.58 494.01 L 158.70 507.32 L 151.40 522.82 L 142.76 539.29 L 134.03 554.95 L 125.22 569.82 L 116.32 583.94 L 103.00 551.04 L 114.19 535.05 L 124.00 520.15 L 132.55 506.29 L 139.92 493.40 L 146.20 481.42 L 151.49 470.30 L 155.85 459.98 L 164.34 438.08 L 169.28 424.49 L 171.77 416.77 L 172.73 412.90 L 114.09 412.90 L 114.09 383.55 L 172.73 383.55 L 172.73 305.00 L 202.73 305.00 Z M 360.37 305.00 L 360.37 398.80 L 463.29 382.82 L 467.92 411.48 L 361.30 428.47 L 361.17 439.41 L 361.38 449.86 L 361.94 459.84 L 362.71 468.03 L 363.83 475.96 L 365.28 483.66 L 479.76 463.99 L 484.20 491.96 L 368.63 512.57 L 370.94 529.78 L 373.25 543.42 L 375.52 554.02 L 378.34 564.70 L 381.08 573.27 L 383.70 580.01 L 386.20 585.22 L 395.20 577.24 L 404.15 568.47 L 413.04 558.89 L 423.29 546.90 L 433.50 534.08 L 443.66 520.41 L 467.92 536.91 L 458.39 549.19 L 448.93 560.83 L 439.55 571.86 L 430.24 582.29 L 421.99 591.03 L 413.81 599.17 L 405.70 606.72 L 397.66 613.70 L 403.61 623.22 L 409.30 631.44 L 414.76 638.46 L 420.00 644.41 L 425.02 649.39 L 428.96 652.68 L 432.73 655.17 L 436.35 656.97 L 439.85 658.15 L 443.28 658.76 L 446.68 658.84 L 450.02 657.34 L 452.68 655.65 L 454.78 653.77 L 456.37 651.69 L 457.52 649.39 L 461.25 638.98 L 464.52 628.27 L 467.34 617.25 L 469.69 605.91 L 471.56 594.24 L 498.00 611.24 L 495.65 622.28 L 492.91 632.59 L 489.81 642.23 L 486.36 651.22 L 482.57 659.61 L 478.46 667.44 L 474.02 674.73 L 471.92 677.79 L 469.46 680.54 L 466.63 683.01 L 463.39 685.19 L 459.71 687.09 L 455.53 688.70 L 450.80 690.00 L 445.63 689.69 L 440.25 688.75 L 434.63 687.13 L 428.72 684.77 L 422.49 681.59 L 415.89 677.50 L 408.89 672.42 L 401.80 666.07 L 395.37 659.60 L 389.54 653.00 L 384.31 646.26 L 379.64 639.37 L 375.52 632.33 L 359.56 642.93 L 344.09 652.52 L 329.10 661.14 L 318.75 666.53 L 308.34 671.32 L 297.86 675.52 L 287.30 679.13 L 276.64 682.18 L 265.87 684.67 L 248.00 661.14 L 263.00 655.66 L 278.07 649.69 L 293.21 643.24 L 308.42 636.28 L 318.77 631.16 L 329.23 625.52 L 339.80 619.35 L 350.49 612.63 L 361.30 605.34 L 355.79 589.78 L 350.73 574.29 L 346.12 558.89 L 343.25 547.70 L 340.43 534.20 L 337.71 518.07 L 268.25 529.83 L 263.48 502.59 L 333.96 489.55 L 329.10 432.97 L 265.87 441.99 L 261.37 414.77 L 329.10 404.13 L 329.10 305.00 L 360.37 305.00 Z M 410.01 306.00 L 418.87 314.23 L 427.04 322.44 L 434.55 330.63 L 442.54 339.96 L 450.02 349.18 L 457.00 358.30 L 457.00 358.30 L 433.65 375.00 L 422.04 360.80 L 410.01 346.76 L 398.71 334.19 L 387.00 321.77 L 387.00 321.77 Z" fill="#ffffff" fill-rule="evenodd" group-id="1" id="形状结合" node-id="10" stroke="none" target-height="388" target-width="395" target-x="103" target-y="305"/><path d="M 910.00 646.00 L 910.00 676.00 L 552.00 676.00 L 552.00 646.00 L 910.00 646.00 Z M 667.43 303.00 L 699.36 309.79 L 677.32 341.50 L 825.07 341.50 L 825.07 364.46 L 818.69 373.25 L 812.23 381.50 L 805.69 389.21 L 797.89 397.75 L 790.03 405.83 L 782.08 413.45 L 780.57 414.85 L 870.00 414.85 L 870.00 598.00 L 595.49 598.00 L 595.49 425.32 L 555.70 453.88 L 536.00 429.55 L 549.40 420.78 L 562.52 411.56 L 575.38 401.91 L 587.97 391.81 L 600.31 381.25 L 612.39 370.22 L 622.27 360.51 L 631.86 350.23 L 641.17 339.36 L 650.20 327.88 L 658.95 315.77 L 667.43 303.00 Z M 717.07 519.15 L 626.98 519.15 L 626.98 568.55 L 717.07 568.55 L 717.07 519.15 Z M 840.11 519.15 L 748.07 519.15 L 748.07 568.55 L 840.11 568.55 L 840.11 519.15 Z M 717.07 444.57 L 626.98 444.57 L 626.98 490.97 L 717.07 490.97 L 717.07 444.57 Z M 839.89 444.57 L 747.86 444.57 L 747.86 490.97 L 839.89 490.97 L 839.89 444.57 Z M 785.51 370.22 L 653.79 370.22 L 645.02 379.83 L 635.89 389.21 L 622.51 402.26 L 608.77 415.09 L 741.71 415.09 L 751.80 405.52 L 761.68 395.65 L 773.70 383.09 L 785.51 370.22 Z" fill="#ffffff" fill-rule="evenodd" group-id="1" id="形状结合" node-id="11" stroke="none" target-height="373" target-width="374" target-x="536" target-y="303"/><path d="M 1299.50 396.50 L 1294.00 425.00 L 1602.00 425.00 L 1595.50 472.50 L 1284.50 472.50 L 1240.50 699.50 L 1155.00 699.50 L 1219.50 367.00 L 1204.00 349.00 L 1603.00 349.00 L 1596.50 396.50 L 1299.50 396.50 Z M 1582.00 501.00 L 1554.00 699.50 L 1288.00 699.50 L 1316.00 501.00 L 1582.00 501.00 Z M 1484.50 653.00 L 1499.00 548.50 L 1385.00 548.50 L 1370.50 653.00 L 1484.50 653.00 Z" fill="#333333" fill-rule="nonzero" group-id="1,3" id="形状" node-id="13" stroke="none" target-height="350.5" target-width="448" target-x="1155" target-y="349"/><path d="M 2031.00 520.00 L 2007.00 689.50 L 1639.50 689.50 L 1663.50 520.00 L 2031.00 520.00 Z M 2003.00 359.00 L 2038.50 501.00 L 1957.50 501.00 L 1955.50 493.50 L 1666.00 493.50 L 1671.00 457.50 L 1743.00 351.50 L 1731.00 340.00 L 1854.50 340.00 L 1779.50 447.50 L 1944.00 447.50 L 1922.00 359.00 L 2003.00 359.00 Z M 1919.50 642.00 L 1930.00 567.00 L 1750.00 567.00 L 1739.50 642.00 L 1919.50 642.00 Z" fill="#333333" fill-rule="nonzero" group-id="1,3" id="形状" node-id="14" stroke="none" target-height="349.5" target-width="399" target-x="1639.5" target-y="340"/><path d="M 2449.00 520.00 L 2438.50 596.00 L 2200.50 596.00 L 2198.50 610.00 L 2446.00 610.00 L 2433.00 699.50 L 2091.00 699.50 L 2116.50 520.00 L 2078.50 520.00 L 2089.00 444.00 L 2243.00 444.00 L 2241.00 430.50 L 2351.50 430.50 L 2353.50 444.00 L 2507.00 444.00 L 2496.50 520.00 L 2449.00 520.00 Z M 2416.00 358.50 L 2519.00 358.50 L 2514.00 396.50 L 2466.00 396.50 L 2481.50 425.00 L 2405.50 425.00 L 2391.50 400.00 L 2377.00 425.00 L 2291.50 425.00 L 2333.50 352.50 L 2322.50 339.50 L 2427.00 339.50 L 2416.00 358.50 Z M 2216.00 358.50 L 2310.00 358.50 L 2305.00 396.50 L 2266.00 396.50 L 2282.00 425.00 L 2206.00 425.00 L 2192.00 400.00 L 2177.50 425.00 L 2092.00 425.00 L 2134.00 352.50 L 2123.00 339.50 L 2227.50 339.50 L 2216.00 358.50 Z M 2175.50 505.50 L 2403.50 505.50 L 2405.50 491.50 L 2177.50 491.50 L 2175.50 505.50 Z M 2193.00 648.00 L 2191.00 662.50 L 2343.50 662.50 L 2345.50 648.00 L 2193.00 648.00 Z M 2208.00 543.50 L 2206.00 558.00 L 2348.50 558.00 L 2350.50 543.50 L 2208.00 543.50 Z" fill="#333333" fill-rule="nonzero" group-id="1,3" id="形状" node-id="15" stroke="none" target-height="360" target-width="440.5" target-x="2078.5" target-y="339.5"/><path d="M 2785.50 567.00 L 2789.50 538.00 L 2706.50 538.00 L 2733.00 348.50 L 2984.00 348.50 L 2957.50 538.00 L 2865.50 538.00 L 2861.50 567.00 L 2952.50 567.00 L 2945.50 614.50 L 2855.00 614.50 L 2851.00 643.00 L 2952.50 643.00 L 2946.00 690.50 L 2674.50 690.50 L 2681.00 643.00 L 2775.00 643.00 L 2779.00 614.50 L 2694.50 614.50 L 2701.50 567.00 L 2785.50 567.00 Z M 2590.00 478.00 L 2602.00 393.00 L 2578.00 393.00 L 2584.00 348.50 L 2716.00 348.50 L 2710.00 393.00 L 2681.00 393.00 L 2669.00 478.00 L 2699.50 478.00 L 2692.00 528.50 L 2662.00 528.50 L 2649.00 623.00 L 2678.00 617.50 L 2671.50 666.00 L 2533.50 690.50 L 2540.00 643.00 L 2567.50 638.00 L 2583.00 528.50 L 2557.00 528.50 L 2564.50 478.00 L 2590.00 478.00 Z M 2778.00 420.50 L 2806.50 420.50 L 2810.00 393.50 L 2782.00 393.50 L 2778.00 420.50 Z M 2900.50 492.50 L 2904.00 465.50 L 2876.00 465.50 L 2872.00 492.50 L 2900.50 492.50 Z M 2886.00 393.50 L 2882.50 420.50 L 2910.00 420.50 L 2914.00 393.50 L 2886.00 393.50 Z M 2796.00 492.50 L 2800.00 465.50 L 2772.00 465.50 L 2768.50 492.50 L 2796.00 492.50 Z" fill="#333333" fill-rule="nonzero" group-id="1,3" id="形状" node-id="16" stroke="none" target-height="342" target-width="450.5" target-x="2533.5" target-y="348.5"/><path d="M 3440.50 386.50 L 3217.00 395.00 L 3179.00 420.50 L 3417.00 420.50 L 3409.50 474.00 L 3212.00 474.00 L 3147.00 515.50 L 3313.50 515.50 L 3311.50 496.00 L 3406.50 496.00 L 3414.50 572.50 L 3319.50 572.50 L 3318.50 563.00 L 3264.00 563.00 L 3249.50 666.50 L 3248.41 671.26 L 3246.86 675.66 L 3244.85 679.72 L 3242.39 683.50 L 3239.45 687.00 L 3236.00 690.25 L 3232.20 693.10 L 3228.25 695.40 L 3224.14 697.18 L 3219.83 698.46 L 3215.30 699.24 L 3210.50 699.50 L 3111.50 699.50 L 3156.00 653.00 L 3169.00 563.00 L 3036.00 563.00 L 3042.50 515.50 L 3112.50 473.50 L 3048.50 473.50 L 3056.00 421.50 L 3093.50 399.50 L 3039.50 401.50 L 3047.00 349.00 L 3447.50 339.00 L 3440.50 386.50 Z M 3408.50 681.50 L 3323.00 681.50 L 3289.00 586.50 L 3374.50 586.50 L 3408.50 681.50 Z M 3076.00 681.50 L 2990.50 681.50 L 3051.50 586.50 L 3136.50 586.50 L 3076.00 681.50 Z" fill="#333333" fill-rule="nonzero" group-id="1,3" id="形状" node-id="17" stroke="none" target-height="360.5" target-width="457" target-x="2990.5" target-y="339"/><path d="M 3871.00 453.50 L 3887.50 539.00 L 3821.00 539.00 L 3819.00 530.00 L 3631.00 539.00 L 3637.50 491.50 L 3686.00 415.50 L 3638.50 415.50 L 3645.50 368.00 L 3725.50 368.00 L 3727.00 358.50 L 3711.00 339.50 L 3825.00 339.50 L 3820.50 368.00 L 3902.00 368.00 L 3895.00 415.50 L 3781.00 415.50 L 3735.50 486.50 L 3810.00 483.00 L 3804.50 453.50 L 3871.00 453.50 Z M 3489.50 463.00 L 3554.00 361.50 L 3543.50 349.00 L 3648.00 349.00 L 3575.00 463.00 L 3632.00 463.00 L 3559.00 577.00 L 3616.00 577.00 L 3609.50 624.50 L 3467.00 624.50 L 3473.50 577.00 L 3516.00 510.50 L 3483.00 510.50 L 3489.50 463.00 Z M 3829.00 548.50 L 3817.00 634.00 L 3855.00 634.00 L 3876.50 615.00 L 3866.00 691.00 L 3733.00 691.00 L 3753.00 548.50 L 3829.00 548.50 Z M 3734.00 548.50 L 3685.50 691.00 L 3609.50 691.00 L 3658.00 548.50 L 3734.00 548.50 Z M 3600.00 691.00 L 3456.00 699.50 L 3463.00 653.00 L 3606.50 643.50 L 3600.00 691.00 Z" fill="#333333" fill-rule="nonzero" group-id="1,3" id="形状" node-id="18" stroke="none" target-height="360" target-width="446" target-x="3456" target-y="339.5"/></g></svg>