
<svg xmlns:xlink="http://www.w3.org/1999/xlink" xmlns="http://www.w3.org/2000/svg" version="1.1" viewBox="0 0 3615 1040" height="1040px" width="3615px">
    <defs>
        <linearGradient id="linearGradient-umym17p4om-1" y2="76.3470468%" x2="91.7011934%" y1="28.6297862%" x1="5.71800164%">
            <stop offset="0%" stop-color="#63B9AF"></stop>
            <stop offset="60.7586627%" stop-color="#5494DF"></stop>
            <stop offset="100%" stop-color="#866AE8"></stop>
        </linearGradient>
    </defs>
    <g fill-rule="evenodd" fill="none" stroke-width="1" stroke="none" id="页面-1">
        <g transform="translate(-636.000000, -6893.000000)" id="画板">
            <circle r="520" cy="7413" cx="1156" style="mix-blend-mode: lighten;" fill="url(#linearGradient-umym17p4om-1)" id="椭圆形"></circle>
            <path fill="#FFFFFF" id="形状结合" d="M838.725057,7198 L838.725057,7276.55193 L886.195501,7276.55193 L886.195501,7305.90289 L838.725057,7305.90289 L838.725057,7326.56717 C848.25658,7338.26519 857.501406,7350.55962 866.459535,7363.45045 C876.259721,7377.55302 885.773209,7392.25199 895,7407.54736 L877.762312,7434.64426 L847.50791,7373.52899 L838.725057,7356.24914 L838.725057,7586 L808.725808,7586 L808.725808,7366.08275 C804.168682,7379.29372 797.058901,7395.87413 787.396462,7415.82399 C776.224024,7437.78334 764.533199,7458.1554 752.323987,7476.94016 L739,7444.0377 C763.936967,7409.3459 781.555258,7378.9932 791.854871,7352.97961 C802.154484,7326.96602 807.778129,7311.27378 808.725808,7305.90289 L750.089504,7305.90289 L750.089504,7276.55193 L808.725808,7276.55193 L808.725808,7198 L838.725057,7198 Z M996.37001,7198 L996.37001,7291.79528 L1099.28517,7275.82042 L1103.92076,7304.48259 L997.295564,7321.4694 C996.993511,7332.40542 997.206774,7342.86247 997.935354,7352.84056 C998.534897,7361.05143 999.649756,7368.99252 1001.27993,7376.66381 L1115.76022,7356.98679 L1120.2013,7384.95702 L1004.6308,7405.56902 C1006.69035,7422.73153 1008.98593,7436.54723 1011.51752,7447.01612 C1014.8424,7460.76549 1018.4033,7471.16805 1022.20023,7478.2238 C1031.41372,7470.45834 1040.36145,7461.67883 1049.04343,7451.88525 C1059.5139,7440.0742 1069.71862,7427.24909 1079.65758,7413.40992 L1103.92076,7429.91321 C1091.46837,7446.31528 1078.90789,7461.43936 1066.23933,7475.28546 C1055.48913,7487.0349 1044.63084,7497.50635 1033.66448,7506.69981 C1042.83236,7522.14298 1051.9514,7534.04139 1061.0216,7542.39503 C1068.28857,7549.08791 1075.50669,7552.23603 1082.67597,7551.83938 C1088.28291,7549.74939 1091.89663,7546.60128 1093.51712,7542.39503 C1100.19262,7525.06774 1104.8749,7506.68232 1107.56396,7487.23878 L1134,7504.24417 C1129.27272,7529.32922 1121.27984,7550.49087 1110.02136,7567.7291 C1105.38769,7575.46118 1097.64865,7580.55148 1086.80424,7583 C1073.88661,7583 1059.91559,7577.13834 1044.89119,7565.41501 C1030.55984,7553.29149 1019.43528,7539.93154 1011.51752,7525.33518 C995.727563,7536.16296 980.254274,7545.76391 965.097652,7554.13805 C944.746989,7565.38193 923.67276,7573.22459 901.874966,7577.66602 L884,7554.13805 C904.15807,7547.07762 924.297592,7538.79124 944.418565,7529.27893 C962.018322,7520.95854 979.643988,7510.64598 997.295564,7498.34125 C991.596817,7482.83976 986.53917,7467.35442 982.122622,7451.88525 C978.954494,7440.78873 976.150464,7427.18492 973.710531,7411.07381 L904.246238,7422.8326 L899.478557,7395.59138 L969.956219,7382.54624 L965.097652,7325.96763 L901.874966,7334.9922 L897.366629,7307.77064 L965.097652,7297.13471 L965.097652,7198 L996.37001,7198 Z M1046.00756,7199 C1055.02233,7207.06489 1063.20386,7215.27475 1070.55215,7223.62956 C1078.66258,7232.85091 1086.14519,7242.07441 1093,7251.30004 L1093,7251.30004 L1069.65492,7268 C1062.02791,7258.45943 1054.14546,7249.04699 1046.00756,7239.76268 C1038.59382,7231.30453 1030.92463,7222.97451 1023,7214.77263 L1023,7214.77263 Z"></path>
            <path fill="#FFFFFF" id="形状结合" d="M1546,7539 L1546,7569 L1188,7569 L1188,7539 L1546,7539 Z M1303.42946,7196 L1335.36442,7202.78794 L1313.32002,7234.50331 L1461.07386,7234.50331 L1461.07386,7257.45526 C1454.84737,7266.37229 1448.38547,7274.62238 1441.68817,7282.20551 C1434.0285,7290.8783 1426.1603,7298.9603 1418.08358,7306.45152 L1416.56675,7307.84919 L1506,7307.84919 L1506,7491 L1231.48826,7491 L1231.48826,7318.3222 L1191.70126,7346.87763 L1172,7322.55101 C1199.14456,7305.39121 1224.60956,7285.61498 1248.39501,7263.2223 C1268.78269,7244.02844 1287.1275,7221.621 1303.42946,7196 Z M1353.07118,7412.15221 L1262.97528,7412.15221 L1262.97528,7461.54951 L1353.07118,7461.54951 L1353.07118,7412.15221 Z M1476.10537,7412.15221 L1384.07192,7412.15221 L1384.07192,7461.54951 L1476.10537,7461.54951 L1476.10537,7412.15221 Z M1353.07118,7337.57197 L1262.97528,7337.57197 L1262.97528,7383.97473 L1353.07118,7383.97473 L1353.07118,7337.57197 Z M1475.89403,7337.57197 L1383.86058,7337.57197 L1383.86058,7383.97473 L1475.89403,7383.97473 L1475.89403,7337.57197 Z M1421.51269,7263.2223 L1289.79371,7263.2223 C1284.04922,7269.7106 1278.08014,7276.04122 1271.88646,7282.21417 C1263.07252,7290.9986 1254.03399,7299.62534 1244.77086,7308.09441 L1377.71473,7308.09441 C1384.51722,7301.8003 1391.17398,7295.31789 1397.685,7288.64718 C1405.7733,7280.36052 1413.71586,7271.88556 1421.51269,7263.2223 Z"></path>
            <g fill-rule="nonzero" fill="#333333" transform="translate(1856.500000, 7301.500000)" id="User-Center">
                <path id="路径" d="M137,3.5 L137,12 L105.5,16 C99.5,16.6666667 95.25,18.9166667 92.75,22.75 C90.25,26.5833333 89,32.6666667 89,41 L89,219 C89,250.333333 95.6666667,273.083333 109,287.25 C122.333333,301.416667 144,308.5 174,308.5 C194.333333,308.5 211,306.25 224,301.75 C237,297.25 247.333333,289.916667 255,279.75 C262.666667,269.583333 268,256.333333 271,240 C274,223.666667 275.5,203.5 275.5,179.5 L275.5,41.5 C275.5,28.1666667 268.666667,20.1666667 255,17.5 L225.5,12 L225.5,3.5 C229.5,3.83333333 236,4.16666667 245,4.5 C254,4.83333333 264.5,5 276.5,5 C303.166667,5 320.833333,4.5 329.5,3.5 L329.5,12 L300.5,18.5 C293.166667,19.8333333 289.5,27.5 289.5,41.5 L289.5,192.5 C289.5,215.833333 287.416667,235.833333 283.25,252.5 C279.083333,269.166667 272.416667,282.916667 263.25,293.75 C254.083333,304.583333 242.25,312.583333 227.75,317.75 C213.25,322.916667 195.666667,325.5 175,325.5 C133.333333,325.5 101.5,317 79.5,300 C57.5,283 46.5,258.166667 46.5,225.5 L46.5,39.5 C46.5,31.5 45.6666667,25.75 44,22.25 C42.3333333,18.75 39.1666667,16.6666667 34.5,16 L0,12 L0,3.5 C22,4.5 47.1666667,5 75.5,5 C89.5,5 101.75,4.91666667 112.25,4.75 C122.75,4.58333333 131,4.16666667 137,3.5 Z"></path>
                <path id="路径" d="M485.5,175 C484.166667,169.666667 481.833333,164.333333 478.5,159 C475.166667,153.666667 471.25,148.916667 466.75,144.75 C462.25,140.583333 457.5,137.166667 452.5,134.5 C447.5,131.833333 442.666667,130.5 438,130.5 C414,130.5 402,141.166667 402,162.5 C402,171.833333 406.083333,179.5 414.25,185.5 C422.416667,191.5 434.666667,197.333333 451,203 C488.666667,216.666667 507.5,236.833333 507.5,263.5 C507.5,273.166667 505.583333,281.833333 501.75,289.5 C497.916667,297.166667 492.666667,303.666667 486,309 C479.333333,314.333333 471.666667,318.416667 463,321.25 C454.333333,324.083333 445.166667,325.5 435.5,325.5 C411.5,325.5 391.666667,321.166667 376,312.5 L371,255.5 L380,255.5 C384.666667,273.5 392.666667,287.75 404,298.25 C415.333333,308.75 427.333333,314 440,314 C451.666667,314 461.25,310.75 468.75,304.25 C476.25,297.75 480,289.166667 480,278.5 C480,259.833333 464.333333,245 433,234 C410.666667,226 394.75,217.416667 385.25,208.25 C375.75,199.083333 371,186.833333 371,171.5 C371,163.5 372.833333,156.166667 376.5,149.5 C380.166667,142.833333 385.166667,137.166667 391.5,132.5 C397.833333,127.833333 405.25,124.25 413.75,121.75 C422.25,119.25 431.333333,118 441,118 C461.666667,118 478.833333,122 492.5,130 L495.5,175 L485.5,175 Z"></path>
                <path id="形状" d="M720.5,193 L583,193 C582,199.666667 581.5,206 581.5,212 C581.5,237.666667 588.333333,258.416667 602,274.25 C615.666667,290.083333 634.5,298 658.5,298 C670.166667,298 680.833333,295.75 690.5,291.25 C700.166667,286.75 710.666667,279.166667 722,268.5 L724,280 C712.666667,295 699.583333,306.333333 684.75,314 C669.916667,321.666667 652.666667,325.5 633,325.5 C620.666667,325.5 609.25,322.916667 598.75,317.75 C588.25,312.583333 579.083333,305.333333 571.25,296 C563.416667,286.666667 557.333333,275.75 553,263.25 C548.666667,250.75 546.5,237.166667 546.5,222.5 C546.5,207.833333 548.916667,194.083333 553.75,181.25 C558.583333,168.416667 565.333333,157.333333 574,148 C582.666667,138.666667 593,131.333333 605,126 C617,120.666667 630,118 644,118 C655,118 665.083333,119.833333 674.25,123.5 C683.416667,127.166667 691.333333,132.25 698,138.75 C704.666667,145.25 709.916667,153.166667 713.75,162.5 C717.583333,171.833333 719.833333,182 720.5,193 Z M585.5,181.5 L658,181.5 C663,181.5 667.333333,181.416667 671,181.25 C674.666667,181.083333 677.666667,180.416667 680,179.25 C682.333333,178.083333 683.75,176.333333 684.25,174 C684.75,171.666667 684.5,168.333333 683.5,164 C681.5,155.333333 677.416667,147.5 671.25,140.5 C665.083333,133.5 655.666667,130 643,130 C628,130 615.5,134.583333 605.5,143.75 C595.5,152.916667 588.833333,165.5 585.5,181.5 Z"></path>
                <path id="路径" d="M755,319.5 L755,311.5 L779,307 C785.666667,305.333333 789.916667,302.833333 791.75,299.5 C793.583333,296.166667 794.5,290.166667 794.5,281.5 L794.5,185.5 C794.5,178.833333 793.083333,174 790.25,171 C787.416667,168 781.166667,165.5 771.5,163.5 L758.5,160.5 L759.5,153 C772.5,148.666667 783.666667,143.25 793,136.75 C802.333333,130.25 810.5,120.166667 817.5,106.5 L826.5,106.5 C827.166667,115.5 827.666667,125.166667 828,135.5 C828.333333,145.833333 828.5,156.833333 828.5,168.5 C831.833333,162.5 835.583333,156.75 839.75,151.25 C843.916667,145.75 849,140.166667 855,134.5 C866.333333,123.5 876.5,118 885.5,118 C893.833333,118 900.333333,120.333333 905,125 C909.666667,129.666667 912,135.666667 912,143 C912,149.666667 910.083333,154.916667 906.25,158.75 C902.416667,162.583333 897.666667,164.5 892,164.5 C886.333333,164.5 880.5,162.833333 874.5,159.5 C868.5,156.166667 863.333333,154.5 859,154.5 C855.666667,154.5 852.25,156.166667 848.75,159.5 C845.25,162.833333 842,166.833333 839,171.5 C836,176.166667 833.5,181.083333 831.5,186.25 C829.5,191.416667 828.5,195.666667 828.5,199 L828.5,282.5 C828.5,291.166667 829.916667,296.916667 832.75,299.75 C835.583333,302.583333 841.666667,304.666667 851,306 L887,311.5 L887,319.5 C878.333333,318.833333 868.583333,318.333333 857.75,318 C846.916667,317.666667 835.333333,317.5 823,317.5 L816,317.5 C804.333333,317.5 793.416667,317.666667 783.25,318 C773.083333,318.333333 763.666667,318.833333 755,319.5 Z"></path>
                <path id="路径" d="M1350,246.5 C1346.33333,267.5 1341.16667,289.666667 1334.5,313 C1313.5,321.333333 1282.33333,325.5 1241,325.5 C1215.33333,325.5 1191.91667,321.75 1170.75,314.25 C1149.58333,306.75 1131.5,296.166667 1116.5,282.5 C1101.5,268.833333 1089.91667,252.333333 1081.75,233 C1073.58333,213.666667 1069.5,192 1069.5,168 C1069.5,145.666667 1073.66667,124.416667 1082,104.25 C1090.33333,84.0833333 1101.83333,66.25 1116.5,50.75 C1131.16667,35.25 1148.41667,22.9166667 1168.25,13.75 C1188.08333,4.58333333 1209.33333,0 1232,0 C1247,0 1259.91667,0.333333333 1270.75,1 C1281.58333,1.66666667 1291,2.75 1299,4.25 C1307,5.75 1314.08333,7.83333333 1320.25,10.5 C1326.41667,13.1666667 1332.66667,16.5 1339,20.5 C1340,28.5 1340.75,37.1666667 1341.25,46.5 C1341.75,55.8333333 1341.83333,64.8333333 1341.5,73.5 L1331.5,73.5 C1325.16667,54.1666667 1314.33333,39 1299,28 C1283.66667,17 1264.33333,11.5 1241,11.5 C1223.66667,11.5 1207.66667,15.1666667 1193,22.5 C1178.33333,29.8333333 1165.66667,40.3333333 1155,54 C1144.33333,67.6666667 1136,84.0833333 1130,103.25 C1124,122.416667 1121,143.666667 1121,167 C1121,215.333333 1131.33333,251.833333 1152,276.5 C1172.66667,301.166667 1202.83333,313.5 1242.5,313.5 C1265.83333,313.5 1285.75,307.833333 1302.25,296.5 C1318.75,285.166667 1332.33333,268.5 1343,246.5 L1350,246.5 Z"></path>
                <path id="形状" d="M1559.5,193 L1422,193 C1421,199.666667 1420.5,206 1420.5,212 C1420.5,237.666667 1427.33333,258.416667 1441,274.25 C1454.66667,290.083333 1473.5,298 1497.5,298 C1509.16667,298 1519.83333,295.75 1529.5,291.25 C1539.16667,286.75 1549.66667,279.166667 1561,268.5 L1563,280 C1551.66667,295 1538.58333,306.333333 1523.75,314 C1508.91667,321.666667 1491.66667,325.5 1472,325.5 C1459.66667,325.5 1448.25,322.916667 1437.75,317.75 C1427.25,312.583333 1418.08333,305.333333 1410.25,296 C1402.41667,286.666667 1396.33333,275.75 1392,263.25 C1387.66667,250.75 1385.5,237.166667 1385.5,222.5 C1385.5,207.833333 1387.91667,194.083333 1392.75,181.25 C1397.58333,168.416667 1404.33333,157.333333 1413,148 C1421.66667,138.666667 1432,131.333333 1444,126 C1456,120.666667 1469,118 1483,118 C1494,118 1504.08333,119.833333 1513.25,123.5 C1522.41667,127.166667 1530.33333,132.25 1537,138.75 C1543.66667,145.25 1548.91667,153.166667 1552.75,162.5 C1556.58333,171.833333 1558.83333,182 1559.5,193 Z M1424.5,181.5 L1497,181.5 C1502,181.5 1506.33333,181.416667 1510,181.25 C1513.66667,181.083333 1516.66667,180.416667 1519,179.25 C1521.33333,178.083333 1522.75,176.333333 1523.25,174 C1523.75,171.666667 1523.5,168.333333 1522.5,164 C1520.5,155.333333 1516.41667,147.5 1510.25,140.5 C1504.08333,133.5 1494.66667,130 1482,130 C1467,130 1454.5,134.583333 1444.5,143.75 C1434.5,152.916667 1427.83333,165.5 1424.5,181.5 Z"></path>
                <path id="路径" d="M1836,319 C1800.66667,317 1765.5,317 1730.5,319 L1730.5,310.5 L1757,306.5 C1764.33333,305.5 1768,299 1768,287 L1768,202.5 C1768,184.166667 1765,169.583333 1759,158.75 C1753,147.916667 1741.16667,142.5 1723.5,142.5 C1703.16667,142.5 1683,152.5 1663,172.5 L1663,292.5 C1663,297.833333 1667,301.5 1675,303.5 L1703,310.5 L1703,319 C1698,318.666667 1692.41667,318.333333 1686.25,318 C1680.08333,317.666667 1672.83333,317.5 1664.5,317.5 L1648,317.5 C1636.33333,317.5 1625.91667,317.583333 1616.75,317.75 C1607.58333,317.916667 1600,318.333333 1594,319 L1594,310.5 L1620,305.5 C1626.66667,304.5 1630,299.5 1630,290.5 L1630,191.5 C1630,181.166667 1627.91667,174.166667 1623.75,170.5 C1619.58333,166.833333 1612.16667,164.166667 1601.5,162.5 L1601.5,153.5 C1612.16667,150.833333 1622.08333,145.916667 1631.25,138.75 C1640.41667,131.583333 1648.16667,121.666667 1654.5,109 L1663,109 L1663,154.5 C1675.66667,143.166667 1689.41667,134.25 1704.25,127.75 C1719.08333,121.25 1732.33333,118 1744,118 C1782.66667,118 1802,140.833333 1802,186.5 L1802,285.5 C1802,291.833333 1802.83333,296.666667 1804.5,300 C1806.16667,303.333333 1809.5,305.5 1814.5,306.5 L1836,310.5 L1836,319 Z"></path>
                <path id="路径" d="M1926,76.5 L1932.5,76.5 C1932.5,85.5 1932.58333,94.4166667 1932.75,103.25 C1932.91667,112.083333 1933,121 1933,130 L2000,128.5 L2000,147 L1933,149 L1933,249.5 C1933,269.166667 1934.41667,283.833333 1937.25,293.5 C1940.08333,303.166667 1948,307.666667 1961,307 C1966,307 1971.75,305.916667 1978.25,303.75 C1984.75,301.583333 1992,298.166667 2000,293.5 L2004.5,300.5 C1997.83333,308.5 1989.75,314.666667 1980.25,319 C1970.75,323.333333 1957.66667,325.5 1941,325.5 C1932.33333,325.5 1925.33333,324.5 1920,322.5 C1914.66667,320.5 1910.33333,317.166667 1907,312.5 C1903.66667,307.833333 1901.41667,301.416667 1900.25,293.25 C1899.08333,285.083333 1898.5,274.833333 1898.5,262.5 L1898.5,150 C1893.83333,150 1889.33333,150.083333 1885,150.25 C1880.66667,150.416667 1876.16667,150.5 1871.5,150.5 C1866.83333,150.5 1864.5,149.166667 1864.5,146.5 C1864.5,143.833333 1866.66667,141.5 1871,139.5 C1885.33333,133.166667 1895.83333,126.333333 1902.5,119 C1905.83333,115.333333 1909.66667,109.916667 1914,102.75 C1918.33333,95.5833333 1922.33333,86.8333333 1926,76.5 Z"></path>
                <path id="形状" d="M2202.5,193 L2065,193 C2064,199.666667 2063.5,206 2063.5,212 C2063.5,237.666667 2070.33333,258.416667 2084,274.25 C2097.66667,290.083333 2116.5,298 2140.5,298 C2152.16667,298 2162.83333,295.75 2172.5,291.25 C2182.16667,286.75 2192.66667,279.166667 2204,268.5 L2206,280 C2194.66667,295 2181.58333,306.333333 2166.75,314 C2151.91667,321.666667 2134.66667,325.5 2115,325.5 C2102.66667,325.5 2091.25,322.916667 2080.75,317.75 C2070.25,312.583333 2061.08333,305.333333 2053.25,296 C2045.41667,286.666667 2039.33333,275.75 2035,263.25 C2030.66667,250.75 2028.5,237.166667 2028.5,222.5 C2028.5,207.833333 2030.91667,194.083333 2035.75,181.25 C2040.58333,168.416667 2047.33333,157.333333 2056,148 C2064.66667,138.666667 2075,131.333333 2087,126 C2099,120.666667 2112,118 2126,118 C2137,118 2147.08333,119.833333 2156.25,123.5 C2165.41667,127.166667 2173.33333,132.25 2180,138.75 C2186.66667,145.25 2191.91667,153.166667 2195.75,162.5 C2199.58333,171.833333 2201.83333,182 2202.5,193 Z M2067.5,181.5 L2140,181.5 C2145,181.5 2149.33333,181.416667 2153,181.25 C2156.66667,181.083333 2159.66667,180.416667 2162,179.25 C2164.33333,178.083333 2165.75,176.333333 2166.25,174 C2166.75,171.666667 2166.5,168.333333 2165.5,164 C2163.5,155.333333 2159.41667,147.5 2153.25,140.5 C2147.08333,133.5 2137.66667,130 2125,130 C2110,130 2097.5,134.583333 2087.5,143.75 C2077.5,152.916667 2070.83333,165.5 2067.5,181.5 Z"></path>
                <path id="路径" d="M2237,319.5 L2237,311.5 L2261,307 C2267.66667,305.333333 2271.91667,302.833333 2273.75,299.5 C2275.58333,296.166667 2276.5,290.166667 2276.5,281.5 L2276.5,185.5 C2276.5,178.833333 2275.08333,174 2272.25,171 C2269.41667,168 2263.16667,165.5 2253.5,163.5 L2240.5,160.5 L2241.5,153 C2254.5,148.666667 2265.66667,143.25 2275,136.75 C2284.33333,130.25 2292.5,120.166667 2299.5,106.5 L2308.5,106.5 C2309.16667,115.5 2309.66667,125.166667 2310,135.5 C2310.33333,145.833333 2310.5,156.833333 2310.5,168.5 C2313.83333,162.5 2317.58333,156.75 2321.75,151.25 C2325.91667,145.75 2331,140.166667 2337,134.5 C2348.33333,123.5 2358.5,118 2367.5,118 C2375.83333,118 2382.33333,120.333333 2387,125 C2391.66667,129.666667 2394,135.666667 2394,143 C2394,149.666667 2392.08333,154.916667 2388.25,158.75 C2384.41667,162.583333 2379.66667,164.5 2374,164.5 C2368.33333,164.5 2362.5,162.833333 2356.5,159.5 C2350.5,156.166667 2345.33333,154.5 2341,154.5 C2337.66667,154.5 2334.25,156.166667 2330.75,159.5 C2327.25,162.833333 2324,166.833333 2321,171.5 C2318,176.166667 2315.5,181.083333 2313.5,186.25 C2311.5,191.416667 2310.5,195.666667 2310.5,199 L2310.5,282.5 C2310.5,291.166667 2311.91667,296.916667 2314.75,299.75 C2317.58333,302.583333 2323.66667,304.666667 2333,306 L2369,311.5 L2369,319.5 C2360.33333,318.833333 2350.58333,318.333333 2339.75,318 C2328.91667,317.666667 2317.33333,317.5 2305,317.5 L2298,317.5 C2286.33333,317.5 2275.41667,317.666667 2265.25,318 C2255.08333,318.333333 2245.66667,318.833333 2237,319.5 Z"></path>
            </g>
        </g>
    </g>
</svg>